<svg width="68" height="62" viewBox="0 0 68 62" fill="none" xmlns="http://www.w3.org/2000/svg">
<g clip-path="url(#clip0)" filter="url(#filter0_d)">
<path d="M62.6593 48.2166H12.5056C9.2942 48.2166 6.68142 46.479 6.68142 44.343V17.657C6.68142 15.521 9.2942 13.7834 12.5056 13.7834C13.2461 13.7834 13.8464 13.3842 13.8464 12.8917C13.8464 12.3991 13.2461 12 12.5056 12C7.81566 12 4 14.5377 4 17.657V44.343C4 47.4623 7.81566 50 12.5056 50H62.6593C63.3997 50 64 49.6009 64 49.1083C64 48.616 63.3997 48.2166 62.6593 48.2166Z" fill="#C5AC2D"/>
<path d="M58.424 12.2121H29.3027C28.8173 12.2121 28.4238 12.6055 28.4238 13.091C28.4238 13.5764 28.8173 13.9699 29.3027 13.9699H58.424C60.5292 13.9699 62.242 15.6826 62.242 17.7879V44.0909C62.242 46.1961 60.5292 47.9088 58.424 47.9088H57.4846C56.9992 47.9088 56.6057 48.3024 56.6057 48.7877C56.6057 49.2733 56.9992 49.6667 57.4846 49.6667H58.424C61.4985 49.6667 63.9999 47.1654 63.9999 44.0909V17.7879C63.9999 14.7134 61.4985 12.2121 58.424 12.2121Z" fill="#C5AC2D"/>
<path d="M13.3335 13.9699C15.9567 13.9699 18.091 16.104 18.091 18.7274C18.091 19.2128 18.4845 19.6063 18.9699 19.6063C19.4553 19.6063 19.8488 19.2128 19.8488 18.7274C19.8488 16.1041 21.983 13.9699 24.6062 13.9699C25.0916 13.9699 25.4851 13.5764 25.4851 13.091C25.4851 12.6055 25.0916 12.2121 24.6062 12.2121C21.983 12.2121 19.8488 10.0779 19.8488 7.45465C19.8488 6.96926 19.4553 6.57574 18.9699 6.57574C18.4845 6.57574 18.091 6.96926 18.091 7.45465C18.091 10.0779 15.9569 12.2121 13.3335 12.2121C12.8481 12.2121 12.4546 12.6055 12.4546 13.091C12.4546 13.5764 12.8481 13.9699 13.3335 13.9699ZM18.9699 10.7201C19.5404 11.7012 20.3597 12.5204 21.3408 13.091C20.3597 13.6615 19.5404 14.4809 18.9699 15.4618C18.3993 14.4809 17.58 13.6615 16.599 13.091C17.5799 12.5204 18.3993 11.7012 18.9699 10.7201Z" fill="#C5AC2D"/>
<path d="M53.727 47.9088C52.1397 47.9088 50.8484 46.6174 50.8484 45.0302C50.8484 44.5449 50.4549 44.1513 49.9695 44.1513C49.4841 44.1513 49.0906 44.5449 49.0906 45.0302C49.0906 46.6175 47.7992 47.9088 46.2119 47.9088C45.7265 47.9088 45.333 48.3024 45.333 48.7877C45.333 49.2732 45.7265 49.6666 46.2119 49.6666C47.7992 49.6666 49.0906 50.9581 49.0906 52.5454C49.0906 53.0307 49.4841 53.4243 49.9695 53.4243C50.4549 53.4243 50.8484 53.0307 50.8484 52.5454C50.8484 50.9581 52.1398 49.6666 53.727 49.6666C54.2124 49.6666 54.6059 49.2732 54.6059 48.7877C54.6059 48.3025 54.2124 47.9088 53.727 47.9088ZM49.9694 49.832C49.679 49.431 49.3262 49.0781 48.9252 48.7877C49.3261 48.4974 49.679 48.1445 49.9694 47.7436C50.2598 48.1445 50.6127 48.4975 51.0137 48.7877C50.6127 49.0781 50.2598 49.4311 49.9694 49.832Z" fill="#C5AC2D"/>
<path d="M17.2759 22.5453C16.7905 22.5453 16.397 22.9389 16.397 23.4243V38.4418C16.397 38.8699 16.7054 39.2357 17.1273 39.3081C17.1883 39.3185 17.2767 39.3337 18.907 39.3337C19.6983 39.3337 20.8531 39.3301 22.544 39.3207C23.0294 39.318 23.4207 38.9223 23.418 38.4369C23.4153 37.9532 23.0224 37.5629 22.5392 37.5629C22.5376 37.5629 22.5358 37.5629 22.5342 37.5629C21.2014 37.5703 19.2498 37.5778 18.1549 37.5751V23.4243C18.1548 22.9389 17.7613 22.5453 17.2759 22.5453Z" fill="#C5AC2D"/>
<path d="M41.2863 39.173C41.4402 39.2814 41.6168 39.3335 41.7918 39.3335C42.068 39.3335 42.3399 39.2037 42.5111 38.9607L47.4622 31.9324L52.4062 38.9602C52.5773 39.2034 52.8494 39.3335 53.1258 39.3335C53.3005 39.3335 53.477 39.2815 53.6308 39.1733C54.0278 38.8941 54.1232 38.3457 53.8439 37.9488L48.5377 30.4059L53.0996 23.9304C53.379 23.5336 53.284 22.9853 52.8872 22.7057C52.4904 22.4261 51.9421 22.5212 51.6625 22.918L47.4633 28.8786L43.2705 22.9185C42.9911 22.5213 42.4429 22.4261 42.0458 22.7053C41.6488 22.9846 41.5534 23.5329 41.8327 23.9298L46.3879 30.4051L41.074 37.9482C40.7945 38.3452 40.8896 38.8935 41.2863 39.173Z" fill="#C5AC2D"/>
<path d="M28.7423 38.4028C29.7063 39.0188 30.7971 39.3318 31.9847 39.3334H31.9946C33.0264 39.3334 33.9918 39.1106 34.8641 38.6714C37.0336 37.5788 38.1803 35.8791 38.1803 33.7559V23.4243C38.1803 22.9389 37.7868 22.5453 37.3014 22.5453C36.816 22.5453 36.4225 22.9389 36.4225 23.4243V33.7559C36.4225 35.211 35.6541 36.3054 34.0735 37.1014C33.4485 37.4162 32.7491 37.5757 31.9943 37.5756C31.9919 37.5756 31.9894 37.5756 31.987 37.5756C31.1393 37.5744 30.366 37.3543 29.6886 36.9214C28.3202 36.0472 27.7363 35.1036 27.7363 33.7666V23.4243C27.7363 22.9389 27.3428 22.5453 26.8574 22.5453C26.372 22.5453 25.9785 22.9389 25.9785 23.4243V33.7666C25.9786 35.6982 26.8826 37.2147 28.7423 38.4028Z" fill="#C5AC2D"/>
</g>
<defs>
<filter id="filter0_d" x="0" y="0" width="68" height="68" filterUnits="userSpaceOnUse" color-interpolation-filters="sRGB">
<feFlood flood-opacity="0" result="BackgroundImageFix"/>
<feColorMatrix in="SourceAlpha" type="matrix" values="0 0 0 0 0 0 0 0 0 0 0 0 0 0 0 0 0 0 127 0"/>
<feOffset dy="4"/>
<feGaussianBlur stdDeviation="2"/>
<feColorMatrix type="matrix" values="0 0 0 0 0 0 0 0 0 0 0 0 0 0 0 0 0 0 0.25 0"/>
<feBlend mode="normal" in2="BackgroundImageFix" result="effect1_dropShadow"/>
<feBlend mode="normal" in="SourceGraphic" in2="effect1_dropShadow" result="shape"/>
</filter>
<clipPath id="clip0">
<rect width="60" height="60" fill="white" transform="translate(4)"/>
</clipPath>
</defs>
</svg>
